<?xml version="1.0" encoding="utf-8"?>
<!-- Generator: Adobe Illustrator 16.0.0, SVG Export Plug-In . SVG Version: 6.00 Build 0)  -->
<!DOCTYPE svg PUBLIC "-//W3C//DTD SVG 1.1//EN" "http://www.w3.org/Graphics/SVG/1.1/DTD/svg11.dtd">
<svg version="1.1" xmlns="http://www.w3.org/2000/svg" xmlns:xlink="http://www.w3.org/1999/xlink" x="0px" y="0px"
	 width="63.092px" height="63.092px" viewBox="0 0 63.092 63.092" enable-background="new 0 0 63.092 63.092" xml:space="preserve">
<g id="BG">
</g>
<g id="Elements">
	<g>
		<path id="XMLID_14_" fill="none" stroke="#009FDC" stroke-width="0.5" stroke-miterlimit="10" d="M31.546,1.822
			c16.541,0,29.957,13.413,29.957,29.959c0,16.549-13.416,29.958-29.957,29.958c-16.544,0-29.958-13.409-29.958-29.958
			C1.588,15.235,15.002,1.822,31.546,1.822"/>
		
			<line id="XMLID_13_" fill="none" stroke="#009FDC" stroke-width="0.5" stroke-linecap="round" stroke-miterlimit="10" x1="28.641" y1="50.193" x2="34.903" y2="50.221"/>
		
			<line id="XMLID_12_" fill="none" stroke="#009FDC" stroke-width="0.5" stroke-linecap="round" stroke-miterlimit="10" x1="29.107" y1="51.43" x2="34.437" y2="51.454"/>
		
			<line id="XMLID_11_" fill="none" stroke="#009FDC" stroke-width="0.5" stroke-linecap="round" stroke-miterlimit="10" x1="29.792" y1="52.667" x2="33.753" y2="52.686"/>
		
			<line id="XMLID_10_" fill="none" stroke="#009FDC" stroke-width="0.5" stroke-linecap="round" stroke-miterlimit="10" x1="30.493" y1="53.906" x2="33.051" y2="53.917"/>
		<path id="XMLID_9_" fill="none" stroke="#009FDC" stroke-width="0.5" stroke-miterlimit="10" d="M35.347,48.776
			c0.055-12.146,6.52-14.885,6.55-22.191c0.025-5.593-4.487-10.146-10.078-10.171c-5.593-0.025-10.148,4.487-10.172,10.081
			c-0.032,7.219,6.412,10.189,6.356,22.248L35.347,48.776z"/>
		<path id="XMLID_8_" fill="none" stroke="#009FDC" stroke-width="0.5" stroke-miterlimit="10" d="M45.411,14.371
			c-2.78-2.74-5.501-4.213-10.626-4.66c-9.556-0.831-16.296,6.158-17.054,15.485c-0.052,0.616-0.062,1.228-0.045,1.831
			c1.621-8.394,7.891-14.578,16.802-13.671c3.763,0.383,6.777,2.369,8.504,4.966L45.411,14.371z"/>
	</g>
</g>
<g id="Comments">
</g>
</svg>
